<svg width="29" height="29" viewBox="0 0 29 29" fill="none" xmlns="http://www.w3.org/2000/svg">
<path d="M14.5 25.892C14.3686 25.8921 14.2386 25.8663 14.1172 25.816C13.9959 25.7658 13.8857 25.692 13.793 25.599L4.24696 16.053C1.32296 13.129 1.32296 8.37101 4.24696 5.44701C7.05496 2.63701 11.556 2.52401 14.5 5.11501C17.442 2.52701 21.943 2.63601 24.753 5.44701C27.677 8.37101 27.677 13.13 24.753 16.053L15.207 25.599C15.1142 25.692 15.004 25.7658 14.8827 25.816C14.7614 25.8663 14.6313 25.8921 14.5 25.892ZM9.55095 5.25201C8.82862 5.25074 8.11315 5.39214 7.4456 5.66808C6.77805 5.94403 6.17157 6.34908 5.66095 6.86001C4.63078 7.8921 4.0522 9.29077 4.0522 10.749C4.0522 12.2073 4.63078 13.6059 5.66095 14.638L14.5 23.477L23.339 14.638C24.3691 13.6059 24.9477 12.2073 24.9477 10.749C24.9477 9.29077 24.3691 7.8921 23.339 6.86001C22.3069 5.82984 20.9082 5.25125 19.45 5.25125C17.9917 5.25125 16.593 5.82984 15.561 6.86001L15.207 7.21401C15.1142 7.30696 15.004 7.38069 14.8826 7.431C14.7613 7.48131 14.6313 7.50721 14.5 7.50721C14.3686 7.50721 14.2386 7.48131 14.1173 7.431C13.9959 7.38069 13.8857 7.30696 13.793 7.21401L13.439 6.86001C12.9287 6.3491 12.3226 5.94404 11.6554 5.66808C10.9882 5.39213 10.273 5.25073 9.55095 5.25201Z" fill="#113990"/>
</svg>
