<svg width="24" height="24" viewBox="0 0 24 24" fill="none" xmlns="http://www.w3.org/2000/svg">
<path d="M2 3V11L8 7L2 3Z" fill="#113990"/>
<path d="M3 14.5H21C21.2652 14.5 21.5196 14.3946 21.7071 14.2071C21.8946 14.0196 22 13.7652 22 13.5C22 13.2348 21.8946 12.9804 21.7071 12.7929C21.5196 12.6054 21.2652 12.5 21 12.5H3C2.73478 12.5 2.48043 12.6054 2.29289 12.7929C2.10536 12.9804 2 13.2348 2 13.5C2 13.7652 2.10536 14.0196 2.29289 14.2071C2.48043 14.3946 2.73478 14.5 3 14.5ZM10 7C10 7.26522 10.1054 7.51957 10.2929 7.70711C10.4804 7.89464 10.7348 8 11 8H21C21.2652 8 21.5196 7.89464 21.7071 7.70711C21.8946 7.51957 22 7.26522 22 7C22 6.73478 21.8946 6.48043 21.7071 6.29289C21.5196 6.10536 21.2652 6 21 6H11C10.7348 6 10.4804 6.10536 10.2929 6.29289C10.1054 6.48043 10 6.73478 10 7ZM3 21H21C21.2652 21 21.5196 20.8946 21.7071 20.7071C21.8946 20.5196 22 20.2652 22 20C22 19.7348 21.8946 19.4804 21.7071 19.2929C21.5196 19.1054 21.2652 19 21 19H3C2.73478 19 2.48043 19.1054 2.29289 19.2929C2.10536 19.4804 2 19.7348 2 20C2 20.2652 2.10536 20.5196 2.29289 20.7071C2.48043 20.8946 2.73478 21 3 21Z" fill="#113990"/>
</svg>
