<svg width="24" height="24" viewBox="0 0 24 24" fill="none" xmlns="http://www.w3.org/2000/svg">
<path d="M15.646 12.7155C16.6264 11.9442 17.342 10.8864 17.6933 9.68944C18.0445 8.49246 18.014 7.21576 17.6058 6.03696C17.1977 4.85817 16.4323 3.83589 15.4161 3.11235C14.3999 2.38881 13.1835 2 11.936 2C10.6886 2 9.47215 2.38881 8.45596 3.11235C7.43978 3.83589 6.67438 4.85817 6.26624 6.03696C5.85811 7.21576 5.82754 8.49246 6.17879 9.68944C6.53004 10.8864 7.24564 11.9442 8.22603 12.7155C6.54611 13.3885 5.08032 14.5048 3.98492 15.9454C2.88953 17.386 2.20559 19.0968 2.00603 20.8955C1.99159 21.0268 2.00315 21.1597 2.04006 21.2866C2.07697 21.4134 2.1385 21.5317 2.22114 21.6348C2.38805 21.843 2.63082 21.9763 2.89603 22.0055C3.16125 22.0347 3.42719 21.9573 3.63536 21.7904C3.84352 21.6235 3.97686 21.3807 4.00603 21.1155C4.22562 19.1607 5.15772 17.3553 6.62425 16.0443C8.09078 14.7333 9.98893 14.0085 11.956 14.0085C13.9231 14.0085 15.8213 14.7333 17.2878 16.0443C18.7543 17.3553 19.6864 19.1607 19.906 21.1155C19.9332 21.3612 20.0505 21.5882 20.2351 21.7525C20.4198 21.9169 20.6588 22.007 20.906 22.0055H21.016C21.2782 21.9753 21.5178 21.8428 21.6826 21.6367C21.8474 21.4307 21.9241 21.1679 21.896 20.9055C21.6955 19.1017 21.0079 17.3865 19.9069 15.9437C18.8059 14.5009 17.3329 13.385 15.646 12.7155ZM11.936 12.0055C11.1449 12.0055 10.3715 11.7709 9.71375 11.3314C9.05595 10.8918 8.54326 10.2671 8.24051 9.53623C7.93776 8.80533 7.85855 8.00106 8.01289 7.22513C8.16723 6.44921 8.54819 5.73648 9.1076 5.17707C9.66701 4.61766 10.3797 4.2367 11.1557 4.08235C11.9316 3.92801 12.7359 4.00723 13.4668 4.30998C14.1977 4.61273 14.8224 5.12542 15.2619 5.78321C15.7014 6.44101 15.936 7.21437 15.936 8.0055C15.936 9.06636 15.5146 10.0838 14.7645 10.8339C14.0143 11.5841 12.9969 12.0055 11.936 12.0055Z" fill="#113990"/>
</svg>
