<svg width="147" height="147" viewBox="0 0 147 147" fill="none" xmlns="http://www.w3.org/2000/svg">
<g clip-path="url(#clip0_43_124)">
<path d="M146.912 95.9064C146.912 103.972 144.058 110.858 138.351 116.565C132.645 122.272 125.758 125.126 117.693 125.126H34.9049C25.5203 125.126 17.4927 121.79 10.8219 115.12C4.15126 108.449 0.815918 100.421 0.815918 91.0366C0.815918 84.3405 2.61676 78.2152 6.21845 72.6605C9.82008 67.1058 14.5631 62.9588 20.4475 60.2195C20.3461 58.7991 20.2953 57.7084 20.2953 56.9475C20.2953 46.1933 24.0999 37.0116 31.7091 29.4024C39.3182 21.7933 48.5 17.9887 59.2542 17.9887C67.2692 17.9887 74.536 20.2207 81.0545 24.6847C87.573 29.1488 92.3287 34.9825 95.3216 42.1858C98.8726 39.0407 103.083 37.4681 107.953 37.4681C113.33 37.4681 117.921 39.3704 121.725 43.175C125.53 46.9796 127.432 51.5704 127.432 56.9475C127.432 60.7521 126.392 64.2523 124.313 67.4482C130.856 68.97 136.259 72.3815 140.52 77.6825C144.781 82.9836 146.912 89.0582 146.912 95.9064Z" fill="white"/>
</g>
<defs>
<clipPath id="clip0_43_124">
<rect width="146.096" height="146.096" fill="white" transform="translate(0.815918 0.226685)"/>
</clipPath>
</defs>
</svg>
