<svg width="147" height="147" viewBox="0 0 147 147" fill="none" xmlns="http://www.w3.org/2000/svg">
<path d="M109.711 85.9607C106.114 85.9845 102.568 86.8047 99.3257 88.3625C96.084 89.9202 93.2275 92.1768 90.9617 94.97L59.9164 80.6647C61.376 76.1951 61.376 71.377 59.9164 66.9074L90.9617 52.6022C94.624 57.0214 99.7296 60.0048 105.377 61.0261C111.025 62.0473 116.852 61.0406 121.83 58.1837C126.808 55.3267 130.617 50.8032 132.584 45.4115C134.551 40.0197 134.551 34.1063 132.583 28.7149C130.614 23.3235 126.805 18.8007 121.826 15.9447C116.848 13.0887 111.021 12.0831 105.373 13.1053C99.7254 14.1276 94.6203 17.112 90.9589 21.5318C87.2975 25.9517 85.315 31.5229 85.3614 37.2621C85.3797 38.7123 85.5223 40.1583 85.7875 41.5841L53.6464 56.3763C50.2197 53.0257 45.8805 50.7609 41.1723 49.8655C36.4641 48.9701 31.5964 49.484 27.179 51.3429C22.7617 53.2018 18.991 56.3229 16.3396 60.3152C13.6882 64.3075 12.2739 68.9935 12.2739 73.7861C12.2739 78.5786 13.6882 83.2646 16.3396 87.2569C18.991 91.2493 22.7617 94.3704 27.179 96.2292C31.5964 98.0881 36.4641 98.602 41.1723 97.7066C45.8805 96.8113 50.2197 94.5464 53.6464 91.1958L85.7875 105.988C85.5223 107.414 85.3797 108.86 85.3614 110.31C85.3614 115.126 86.7895 119.834 89.465 123.838C92.1405 127.842 95.9434 130.963 100.393 132.806C104.842 134.649 109.738 135.131 114.461 134.191C119.184 133.252 123.523 130.933 126.928 127.528C130.334 124.122 132.653 119.784 133.592 115.06C134.532 110.337 134.049 105.441 132.207 100.992C130.364 96.5427 127.243 92.7398 123.238 90.0643C119.234 87.3888 114.527 85.9607 109.711 85.9607ZM109.711 25.0875C112.119 25.0875 114.472 25.8015 116.475 27.1393C118.477 28.477 120.037 30.3785 120.959 32.6031C121.88 34.8277 122.121 37.2756 121.651 39.6373C121.182 41.9989 120.022 44.1682 118.319 45.8709C116.617 47.5735 114.448 48.7331 112.086 49.2028C109.724 49.6726 107.276 49.4315 105.052 48.51C102.827 47.5886 100.926 46.0281 99.5878 44.026C98.2501 42.0239 97.536 39.67 97.536 37.2621C97.536 34.0332 98.8187 30.9365 101.102 28.6533C103.385 26.3701 106.482 25.0875 109.711 25.0875ZM36.6628 85.9607C34.2549 85.9607 31.901 85.2467 29.8989 83.9089C27.8968 82.5711 26.3363 80.6697 25.4149 78.4451C24.4934 76.2205 24.2523 73.7726 24.7221 71.4109C25.1918 69.0493 26.3513 66.8799 28.054 65.1773C29.7567 63.4746 31.926 62.3151 34.2876 61.8453C36.6493 61.3756 39.0972 61.6167 41.3218 62.5382C43.5464 63.4596 45.4479 65.0201 46.7856 67.0222C48.1234 69.0243 48.8374 71.3781 48.8374 73.7861C48.8374 77.015 47.5548 80.1116 45.2716 82.3948C42.9884 84.678 39.8917 85.9607 36.6628 85.9607ZM109.711 122.485C107.303 122.485 104.949 121.771 102.947 120.433C100.945 119.095 99.3843 117.194 98.4628 114.969C97.5413 112.744 97.3002 110.297 97.77 107.935C98.2397 105.573 99.3993 103.404 101.102 101.701C102.805 99.9986 104.974 98.8391 107.336 98.3693C109.697 97.8995 112.145 98.1406 114.37 99.0621C116.594 99.9836 118.496 101.544 119.834 103.546C121.171 105.548 121.885 107.902 121.885 110.31C121.885 113.539 120.603 116.636 118.319 118.919C116.036 121.202 112.94 122.485 109.711 122.485Z" fill="white"/>
</svg>
