<svg width="23" height="28" viewBox="0 0 23 28" fill="none" xmlns="http://www.w3.org/2000/svg">
<path d="M19.476 0H5.56456C4.08874 0 2.67338 0.586264 1.62982 1.62982C0.586264 2.67338 0 4.08874 0 5.56456V22.2582C0 23.734 0.586264 25.1494 1.62982 26.193C2.67338 27.2365 4.08874 27.8228 5.56456 27.8228H19.476C20.2139 27.8228 20.9215 27.5297 21.4433 27.0079C21.9651 26.4861 22.2582 25.7784 22.2582 25.0405V2.78228C22.2582 2.04437 21.9651 1.33669 21.4433 0.81491C20.9215 0.293132 20.2139 0 19.476 0ZM2.78228 5.56456C2.78228 4.82665 3.07541 4.11897 3.59719 3.59719C4.11897 3.07541 4.82665 2.78228 5.56456 2.78228H19.476V16.6937H5.56456C4.58386 16.6978 3.62252 16.967 2.78228 17.4727V5.56456ZM5.56456 25.0405C4.82665 25.0405 4.11897 24.7474 3.59719 24.2256C3.07541 23.7038 2.78228 22.9961 2.78228 22.2582C2.78228 21.5203 3.07541 20.8126 3.59719 20.2909C4.11897 19.7691 4.82665 19.476 5.56456 19.476H19.476V25.0405H5.56456ZM8.34684 8.34684H13.9114C14.2803 8.34684 14.6342 8.20027 14.8951 7.93938C15.156 7.67849 15.3025 7.32465 15.3025 6.9557C15.3025 6.58674 15.156 6.2329 14.8951 5.97201C14.6342 5.71112 14.2803 5.56456 13.9114 5.56456H8.34684C7.97788 5.56456 7.62404 5.71112 7.36315 5.97201C7.10226 6.2329 6.9557 6.58674 6.9557 6.9557C6.9557 7.32465 7.10226 7.67849 7.36315 7.93938C7.62404 8.20027 7.97788 8.34684 8.34684 8.34684Z" fill="#113990"/>
</svg>
