<svg width="43" height="43" viewBox="0 0 43 43" fill="none" xmlns="http://www.w3.org/2000/svg">
<path fill-rule="evenodd" clip-rule="evenodd" d="M35.8333 8.95833H33.7371C33.3669 7.90925 32.6805 7.00081 31.7723 6.35824C30.8642 5.71567 29.7791 5.37061 28.6667 5.37061C27.5542 5.37061 26.4691 5.71567 25.561 6.35824C24.6529 7.00081 23.9664 7.90925 23.5963 8.95833H7.16667C6.69149 8.95833 6.23577 9.14709 5.89977 9.4831C5.56376 9.8191 5.375 10.2748 5.375 10.75C5.375 11.2252 5.56376 11.6809 5.89977 12.0169C6.23577 12.3529 6.69149 12.5417 7.16667 12.5417H23.5963C23.9664 13.5907 24.6529 14.4992 25.561 15.1417C26.4691 15.7843 27.5542 16.1294 28.6667 16.1294C29.7791 16.1294 30.8642 15.7843 31.7723 15.1417C32.6805 14.4992 33.3669 13.5907 33.7371 12.5417H35.8333C36.3085 12.5417 36.7642 12.3529 37.1002 12.0169C37.4362 11.6809 37.625 11.2252 37.625 10.75C37.625 10.2748 37.4362 9.8191 37.1002 9.4831C36.7642 9.14709 36.3085 8.95833 35.8333 8.95833ZM28.6667 12.5417C29.1418 12.5417 29.5976 12.3529 29.9336 12.0169C30.2696 11.6809 30.4583 11.2252 30.4583 10.75C30.4583 10.2748 30.2696 9.8191 29.9336 9.4831C29.5976 9.14709 29.1418 8.95833 28.6667 8.95833C28.1915 8.95833 27.7358 9.14709 27.3998 9.4831C27.0638 9.8191 26.875 10.2748 26.875 10.75C26.875 11.2252 27.0638 11.6809 27.3998 12.0169C27.7358 12.3529 28.1915 12.5417 28.6667 12.5417ZM5.375 21.5C5.375 21.0248 5.56376 20.5691 5.89977 20.2331C6.23577 19.8971 6.69149 19.7083 7.16667 19.7083H9.26292C9.63308 18.6593 10.3195 17.7508 11.2277 17.1082C12.1358 16.4657 13.2209 16.1206 14.3333 16.1206C15.4458 16.1206 16.5309 16.4657 17.439 17.1082C18.3471 17.7508 19.0336 18.6593 19.4037 19.7083H35.8333C36.3085 19.7083 36.7642 19.8971 37.1002 20.2331C37.4362 20.5691 37.625 21.0248 37.625 21.5C37.625 21.9752 37.4362 22.4309 37.1002 22.7669C36.7642 23.1029 36.3085 23.2917 35.8333 23.2917H19.4037C19.0336 24.3407 18.3471 25.2492 17.439 25.8917C16.5309 26.5343 15.4458 26.8794 14.3333 26.8794C13.2209 26.8794 12.1358 26.5343 11.2277 25.8917C10.3195 25.2492 9.63308 24.3407 9.26292 23.2917H7.16667C6.69149 23.2917 6.23577 23.1029 5.89977 22.7669C5.56376 22.4309 5.375 21.9752 5.375 21.5ZM14.3333 23.2917C14.8085 23.2917 15.2642 23.1029 15.6002 22.7669C15.9362 22.4309 16.125 21.9752 16.125 21.5C16.125 21.0248 15.9362 20.5691 15.6002 20.2331C15.2642 19.8971 14.8085 19.7083 14.3333 19.7083C13.8582 19.7083 13.4024 19.8971 13.0664 20.2331C12.7304 20.5691 12.5417 21.0248 12.5417 21.5C12.5417 21.9752 12.7304 22.4309 13.0664 22.7669C13.4024 23.1029 13.8582 23.2917 14.3333 23.2917ZM7.16667 30.4583C6.69149 30.4583 6.23577 30.6471 5.89977 30.9831C5.56376 31.3191 5.375 31.7748 5.375 32.25C5.375 32.7252 5.56376 33.1809 5.89977 33.5169C6.23577 33.8529 6.69149 34.0417 7.16667 34.0417H23.5963C23.9664 35.0907 24.6529 35.9992 25.561 36.6417C26.4691 37.2843 27.5542 37.6294 28.6667 37.6294C29.7791 37.6294 30.8642 37.2843 31.7723 36.6417C32.6805 35.9992 33.3669 35.0907 33.7371 34.0417H35.8333C36.3085 34.0417 36.7642 33.8529 37.1002 33.5169C37.4362 33.1809 37.625 32.7252 37.625 32.25C37.625 31.7748 37.4362 31.3191 37.1002 30.9831C36.7642 30.6471 36.3085 30.4583 35.8333 30.4583H33.7371C33.3669 29.4093 32.6805 28.5008 31.7723 27.8582C30.8642 27.2157 29.7791 26.8706 28.6667 26.8706C27.5542 26.8706 26.4691 27.2157 25.561 27.8582C24.6529 28.5008 23.9664 29.4093 23.5963 30.4583H7.16667ZM30.4583 32.25C30.4583 32.7252 30.2696 33.1809 29.9336 33.5169C29.5976 33.8529 29.1418 34.0417 28.6667 34.0417C28.1915 34.0417 27.7358 33.8529 27.3998 33.5169C27.0638 33.1809 26.875 32.7252 26.875 32.25C26.875 31.7748 27.0638 31.3191 27.3998 30.9831C27.7358 30.6471 28.1915 30.4583 28.6667 30.4583C29.1418 30.4583 29.5976 30.6471 29.9336 30.9831C30.2696 31.3191 30.4583 31.7748 30.4583 32.25Z" fill="black"/>
</svg>
