<svg width="200" height="200" viewBox="0 0 200 200" fill="none" xmlns="http://www.w3.org/2000/svg">
<circle cx="100" cy="100" r="100" fill="#222222"/>
<path d="M100.773 86H92.7813L84.3213 73.184V86H76.3293V60.512H84.3213L92.7813 73.544V60.512H100.773V86ZM114.032 86.252C111.992 86.252 110.156 85.832 108.524 84.992C106.892 84.152 105.608 82.952 104.672 81.392C103.76 79.808 103.304 77.96 103.304 75.848C103.304 73.736 103.76 71.9 104.672 70.34C105.608 68.756 106.892 67.544 108.524 66.704C110.156 65.864 111.992 65.444 114.032 65.444C116.072 65.444 117.908 65.864 119.54 66.704C121.172 67.544 122.444 68.756 123.356 70.34C124.292 71.9 124.76 73.736 124.76 75.848C124.76 77.96 124.292 79.808 123.356 81.392C122.444 82.952 121.172 84.152 119.54 84.992C117.908 85.832 116.072 86.252 114.032 86.252ZM114.032 79.34C114.776 79.34 115.4 79.052 115.904 78.476C116.408 77.876 116.66 77 116.66 75.848C116.66 74.696 116.408 73.832 115.904 73.256C115.4 72.656 114.776 72.356 114.032 72.356C113.288 72.356 112.664 72.656 112.16 73.256C111.656 73.832 111.404 74.696 111.404 75.848C111.404 77 111.644 77.876 112.124 78.476C112.628 79.052 113.264 79.34 114.032 79.34ZM49.0596 114.512V140H41.0676V114.512H49.0596ZM79.7771 119.552C82.3691 119.552 84.3731 120.332 85.7891 121.892C87.2291 123.452 87.9491 125.564 87.9491 128.228V140H79.9931V129.236C79.9931 128.372 79.7291 127.7 79.2011 127.22C78.6971 126.716 78.0131 126.464 77.1491 126.464C76.2611 126.464 75.5651 126.716 75.0611 127.22C74.5571 127.7 74.3051 128.372 74.3051 129.236V140H66.3491V129.236C66.3491 128.372 66.0851 127.7 65.5571 127.22C65.0531 126.716 64.3691 126.464 63.5051 126.464C62.6171 126.464 61.9211 126.716 61.4171 127.22C60.9131 127.7 60.6611 128.372 60.6611 129.236V140H52.6691V119.696H60.6611V122.432C61.2371 121.568 62.0171 120.872 63.0011 120.344C64.0091 119.816 65.1851 119.552 66.5291 119.552C67.9931 119.552 69.2891 119.876 70.4171 120.524C71.5451 121.148 72.4451 122.036 73.1171 123.188C73.8611 122.132 74.8091 121.268 75.9611 120.596C77.1131 119.9 78.3851 119.552 79.7771 119.552ZM90.3313 129.848C90.3313 127.712 90.6913 125.864 91.4113 124.304C92.1553 122.72 93.1633 121.52 94.4353 120.704C95.7073 119.864 97.1353 119.444 98.7193 119.444C100.039 119.444 101.179 119.72 102.139 120.272C103.099 120.8 103.831 121.532 104.335 122.468V119.696H112.291V140H104.335V137.228C103.831 138.164 103.099 138.908 102.139 139.46C101.179 139.988 100.039 140.252 98.7193 140.252C97.1353 140.252 95.7073 139.844 94.4353 139.028C93.1633 138.188 92.1553 136.988 91.4113 135.428C90.6913 133.844 90.3313 131.984 90.3313 129.848ZM104.335 129.848C104.335 128.768 104.059 127.928 103.507 127.328C102.955 126.728 102.247 126.428 101.383 126.428C100.519 126.428 99.8113 126.728 99.2593 127.328C98.7073 127.928 98.4313 128.768 98.4313 129.848C98.4313 130.928 98.7073 131.768 99.2593 132.368C99.8113 132.968 100.519 133.268 101.383 133.268C102.247 133.268 102.955 132.968 103.507 132.368C104.059 131.768 104.335 130.928 104.335 129.848ZM123.188 119.444C124.508 119.444 125.648 119.72 126.608 120.272C127.568 120.8 128.3 121.532 128.804 122.468V119.696H136.76V139.64C136.76 141.536 136.412 143.264 135.716 144.824C135.02 146.384 133.892 147.632 132.332 148.568C130.796 149.504 128.816 149.972 126.392 149.972C123.128 149.972 120.536 149.204 118.616 147.668C116.72 146.156 115.64 144.092 115.376 141.476H123.224C123.44 142.532 124.304 143.06 125.816 143.06C126.752 143.06 127.484 142.82 128.012 142.34C128.54 141.86 128.804 140.96 128.804 139.64V137.228C128.3 138.164 127.568 138.908 126.608 139.46C125.648 139.988 124.508 140.252 123.188 140.252C121.604 140.252 120.176 139.844 118.904 139.028C117.632 138.188 116.624 136.988 115.88 135.428C115.16 133.844 114.8 131.984 114.8 129.848C114.8 127.712 115.16 125.864 115.88 124.304C116.624 122.72 117.632 121.52 118.904 120.704C120.176 119.864 121.604 119.444 123.188 119.444ZM128.804 129.848C128.804 128.768 128.528 127.928 127.976 127.328C127.424 126.728 126.716 126.428 125.852 126.428C124.988 126.428 124.28 126.728 123.728 127.328C123.176 127.928 122.9 128.768 122.9 129.848C122.9 130.928 123.176 131.768 123.728 132.368C124.28 132.968 124.988 133.268 125.852 133.268C126.716 133.268 127.424 132.968 127.976 132.368C128.528 131.768 128.804 130.928 128.804 129.848ZM160.005 129.668C160.005 130.22 159.969 130.748 159.897 131.252H147.045C147.165 133.004 147.897 133.88 149.241 133.88C150.105 133.88 150.729 133.484 151.113 132.692H159.573C159.285 134.132 158.673 135.428 157.737 136.58C156.825 137.708 155.661 138.608 154.245 139.28C152.853 139.928 151.317 140.252 149.637 140.252C147.621 140.252 145.821 139.832 144.237 138.992C142.677 138.152 141.453 136.952 140.565 135.392C139.701 133.808 139.269 131.96 139.269 129.848C139.269 127.736 139.701 125.9 140.565 124.34C141.453 122.756 142.677 121.544 144.237 120.704C145.821 119.864 147.621 119.444 149.637 119.444C151.653 119.444 153.441 119.864 155.001 120.704C156.585 121.52 157.809 122.696 158.673 124.232C159.561 125.768 160.005 127.58 160.005 129.668ZM151.905 127.76C151.905 127.088 151.689 126.584 151.257 126.248C150.825 125.888 150.285 125.708 149.637 125.708C148.221 125.708 147.393 126.392 147.153 127.76H151.905Z" fill="white" fill-opacity="0.2"/>
</svg>
