<svg width="360" height="411" viewBox="0 0 360 411" fill="none" xmlns="http://www.w3.org/2000/svg">
<path fill-rule="evenodd" clip-rule="evenodd" d="M29.6164 2.44006C62.6828 -83.4372 130.887 -175.08 203.122 -186.814C271.203 -197.872 276.863 -90.9023 321.365 -44.9497C365.639 0.766499 467.96 -7.51369 455.856 74.1553C443.766 155.734 345.038 182.426 280.636 229.876C233.609 264.524 187.069 312.817 140.841 306.247C93.3656 299.5 73.1174 247.228 55.0253 197.81C32.9493 137.51 1.27774 76.0387 29.6164 2.44006Z" fill="#F9ED32"/>
<path fill-rule="evenodd" clip-rule="evenodd" d="M57.2709 20.3986C90.3373 -65.4787 158.542 -157.122 230.777 -168.855C298.858 -179.914 304.517 -72.9438 349.02 -26.9912C393.293 18.725 495.614 10.4448 483.511 92.1138C471.421 173.693 372.693 200.385 308.29 247.834C261.263 282.482 214.724 330.776 168.495 324.206C121.02 317.458 100.772 265.187 82.6798 215.769C60.6038 155.468 28.9323 93.9972 57.2709 20.3986Z" fill="#F2D335"/>
</svg>
