<svg width="31" height="31" viewBox="0 0 31 31" fill="none" xmlns="http://www.w3.org/2000/svg">
<path d="M19.4287 18.3851C20.595 16.9733 21.3317 15.1624 21.3317 13.1673C21.3317 8.68614 17.6792 5.03366 13.198 5.03366C8.71681 5.03366 5.06433 8.68614 5.06433 13.1673C5.06433 17.6485 8.71681 21.301 13.198 21.301C15.1624 21.301 17.0039 20.595 18.4158 19.398L24.7386 25.7208C24.8921 25.8743 25.0762 25.9356 25.2604 25.9356C25.4445 25.9356 25.6287 25.8743 25.7822 25.7208C26.0584 25.4446 26.0584 24.9535 25.7822 24.6772L19.4287 18.3851ZM13.1673 19.8277C9.48413 19.8277 6.50691 16.8505 6.50691 13.1673C6.50691 9.48416 9.48413 6.50693 13.1673 6.50693C16.8505 6.50693 19.8277 9.48416 19.8277 13.1673C19.8277 16.8505 16.8505 19.8277 13.1673 19.8277Z" fill="black"/>
</svg>
