<svg width="207" height="206" viewBox="0 0 207 206" fill="none" xmlns="http://www.w3.org/2000/svg">
<path d="M177.545 164.604C182.921 157.398 186.61 149.078 188.34 140.256C190.07 131.434 189.797 122.336 187.541 113.634C185.286 104.932 181.104 96.8471 175.307 89.9767C169.509 83.1063 162.242 77.6255 154.043 73.9388C152.257 63.6637 148.152 53.9309 142.041 45.4798C135.93 37.0287 127.973 30.0818 118.775 25.1668C109.576 20.2519 99.3786 17.4982 88.9566 17.1151C78.5345 16.732 68.1621 18.7295 58.6277 22.9558C49.0933 27.1821 40.6476 33.5261 33.9325 41.5056C27.2173 49.4852 22.4093 58.8904 19.8738 69.0066C17.3383 79.1229 17.142 89.684 19.2998 99.8874C21.4576 110.091 25.9128 119.668 32.3268 127.892L20.4039 139.729C19.2137 140.935 18.4075 142.467 18.0869 144.131C17.7663 145.795 17.9458 147.516 18.6026 149.079C19.2461 150.645 20.3389 151.986 21.7432 152.932C23.1475 153.879 24.8006 154.388 26.494 154.397H75.3005C80.161 164.643 87.8241 173.304 97.4028 179.376C106.982 185.448 118.084 188.683 129.425 188.707H180.891C182.584 188.699 184.237 188.189 185.642 187.243C187.046 186.296 188.139 184.955 188.782 183.389C189.439 181.827 189.618 180.105 189.298 178.441C188.977 176.777 188.171 175.246 186.981 174.039L177.545 164.604ZM69.382 128.664C69.3938 131.536 69.6232 134.404 70.0682 137.241H47.166L50.1682 134.325C50.9722 133.528 51.6103 132.579 52.0457 131.534C52.4812 130.488 52.7054 129.367 52.7054 128.235C52.7054 127.103 52.4812 125.981 52.0457 124.936C51.6103 123.891 50.9722 122.942 50.1682 122.145C45.361 117.39 41.5498 111.725 38.9577 105.481C36.3656 99.2359 35.0445 92.5371 35.0716 85.7759C35.0716 72.1264 40.4939 59.0359 50.1455 49.3842C59.7972 39.7325 72.8877 34.3103 86.5372 34.3103C97.1879 34.2463 107.591 37.5216 116.284 43.6759C124.977 49.8301 131.522 58.5538 135.001 68.6207C133.114 68.6207 131.312 68.6207 129.425 68.6207C113.501 68.6207 98.2285 74.9466 86.9682 86.2069C75.708 97.4672 69.382 112.739 69.382 128.664ZM159.79 171.552L160.219 171.981H129.425C119.504 171.963 109.895 168.506 102.237 162.199C94.5784 155.892 89.3435 147.124 87.4241 137.39C85.5046 127.656 87.0193 117.558 91.7101 108.815C96.4009 100.073 103.978 93.2273 113.15 89.4445C122.322 85.6617 132.521 85.1759 142.011 88.0698C151.501 90.9636 159.694 97.0582 165.195 105.315C170.695 113.572 173.163 123.481 172.178 133.353C171.192 143.226 166.814 152.451 159.79 159.457C158.174 161.041 157.249 163.199 157.217 165.462C157.221 166.597 157.451 167.719 157.893 168.765C158.335 169.81 158.979 170.757 159.79 171.552Z" fill="white"/>
</svg>
