<svg width="32" height="40" viewBox="0 0 32 40" fill="none" xmlns="http://www.w3.org/2000/svg">
<path d="M12.036 19.0072C12.5933 19.0072 13.045 19.5677 13.045 20.2593V21.9045H14.3825C14.7668 21.8528 15.1411 22.0781 15.3463 22.4846C15.5515 22.8912 15.5515 23.4074 15.3463 23.8139C15.1411 24.2204 14.7668 24.4457 14.3825 24.3941H13.045V26.0539C13.0387 26.7421 12.5906 27.2981 12.036 27.306C11.4716 27.298 11.027 26.7397 11.027 26.0539V24.3941H9.68953C9.30524 24.4457 8.93095 24.2204 8.72577 23.8139C8.52059 23.4074 8.52059 22.8912 8.72577 22.4846C8.93095 22.0781 9.30524 21.8528 9.68953 21.9045H11.027V20.2593L11.0362 20.0894C11.1031 19.4782 11.5252 19.0072 12.036 19.0072ZM21.422 25.1512C21.7081 24.7957 22.1377 24.6868 22.5132 24.8745C22.6338 24.9446 22.7447 25.0379 22.8417 25.1512C23.2273 25.6361 23.2246 26.4167 22.8355 26.8974C22.4464 27.3782 21.8173 27.3782 21.4282 26.8974C21.0391 26.4167 21.0364 25.6361 21.422 25.1512ZM19.4979 19.3275C19.7384 19.2045 20.0083 19.2045 20.2488 19.3275C20.3743 19.3944 20.4895 19.488 20.589 19.6041C20.7751 19.8364 20.8804 20.1501 20.8823 20.4776C20.8839 20.6419 20.86 20.805 20.8119 20.9581C20.7656 21.1146 20.6891 21.2545 20.589 21.3658C20.1948 21.8317 19.5753 21.8317 19.1811 21.3658C18.9852 21.1374 18.874 20.8186 18.874 20.4849C18.874 20.1513 18.9852 19.8325 19.1811 19.6041C19.2694 19.4845 19.3774 19.3902 19.4979 19.3275ZM29.1418 19.0719C28.9642 13.9727 25.5089 10.0692 21.3448 10.1057C20.8347 10.1156 20.4266 10.6373 20.4332 11.2765C20.4399 11.9125 20.8559 12.4358 21.3686 12.4159C24.6106 12.3348 27.1571 15.2661 27.2935 19.1696C27.3002 19.3219 27.3015 19.476 27.2975 19.6581V26.844C27.332 28.7337 26.7742 30.5239 25.7302 31.8869C24.6861 33.2532 23.2791 34.0266 21.7661 34.068C21.6429 34.0713 21.5183 34.068 21.3408 34.0614C17.6642 34.1392 14.0035 34.1392 10.4025 34.0631C7.25849 34.232 4.6405 31.2029 4.50403 27.3111C4.49873 27.1554 4.49741 26.9997 4.50006 26.8192V19.6316C4.43249 15.7331 6.91401 12.4938 10.0355 12.411C10.1574 12.406 10.2819 12.411 10.4435 12.4159H16.6533C17.1634 12.4159 17.5781 11.8992 17.5781 11.26V9.7115C17.5516 7.31344 15.9789 5.37744 14.0724 5.37744H14.0459H12.7343H12.7263C12.5316 5.37744 12.3474 5.28304 12.207 5.1108C12.0639 4.93856 11.9844 4.70505 11.9831 4.45663C11.9778 3.82234 11.5644 3.31226 11.0596 3.31226H11.049C10.5389 3.31888 10.1295 3.84221 10.1348 4.47982C10.1428 5.34431 10.4184 6.15581 10.9125 6.76029C11.4081 7.36975 12.0599 7.65294 12.7449 7.68938H14.0525H14.0658C14.972 7.68938 15.7179 8.60687 15.7285 9.72475V10.1057L10.4833 10.1073C10.3177 10.099 10.1534 10.0957 9.99174 10.099C5.85542 10.2116 2.56174 14.5109 2.65183 19.6581V26.796C2.64918 26.9997 2.6505 27.2034 2.65713 27.4088C2.83864 32.5759 6.34034 36.6251 10.4276 36.3717C12.2043 36.4114 14.0128 36.4296 15.8292 36.4296C17.6563 36.4296 19.4912 36.4114 21.3169 36.37C21.4826 36.3783 21.6468 36.3816 21.8098 36.3767C23.813 36.322 25.6798 35.2969 27.0657 33.4851C28.4515 31.6749 29.1908 29.2984 29.1457 26.8192V19.6863C29.1497 19.4826 29.1484 19.2772 29.1418 19.0719Z" fill="#113990"/>
</svg>
