<svg width="24" height="24" viewBox="0 0 24 24" fill="none" xmlns="http://www.w3.org/2000/svg">
<path d="M12.0009 1.5C16.4781 1.5 20.3003 4.30331 21.81 8.25H20.1863C19.7458 7.28981 19.1336 6.40547 18.3643 5.63616C16.6645 3.93623 14.4046 3 12.0009 3C9.59682 3 7.33661 3.93623 5.63659 5.6362C3.93653 7.33617 3.00029 9.5962 3.00029 12C3.00029 14.404 3.93653 16.6641 5.6365 18.364C7.33651 20.0639 9.59678 21 12.0009 21C14.4047 21 16.6646 20.0639 18.3644 18.364C19.1337 17.5947 19.7459 16.7103 20.1864 15.75H21.8101C20.3004 19.6969 16.4782 22.5 12.0008 22.5C6.20171 22.5 1.50029 17.7991 1.50029 12C1.50029 6.20147 6.20172 1.5 12.0009 1.5Z" fill="black"/>
<path d="M14.3033 15.182L13.2427 16.2427L9 12L13.2427 7.75734L14.3033 8.81803L11.8713 11.25H22.5V12.75H11.8713L14.3033 15.182Z" fill="black"/>
</svg>
