<svg width="21" height="24" viewBox="0 0 21 24" fill="none" xmlns="http://www.w3.org/2000/svg">
<path d="M20.7284 13.063C20.7262 15.4883 19.8742 17.8361 18.3206 19.6984C16.767 21.5608 14.61 22.82 12.2245 23.2571C10.9947 23.4839 9.73377 23.4839 8.50398 23.2571C6.11841 22.82 3.96141 21.5608 2.40782 19.6984C0.854238 17.8361 0.00227827 15.4883 0 13.063C0.0482 11.0128 0.587721 9.00422 1.57324 7.20586C1.6452 7.06756 1.75633 6.95355 1.89273 6.87806C2.02913 6.80258 2.18476 6.76897 2.34016 6.78145C2.49556 6.79393 2.64383 6.85193 2.76644 6.94821C2.88905 7.0445 2.98057 7.17478 3.02954 7.32279C3.60356 9.03421 4.81538 10.1397 6.11223 10.1397C8.015 10.1397 9.56697 7.87554 9.56697 5.09049C9.58171 3.96024 9.29946 2.84593 8.74846 1.85898C8.68581 1.74592 8.65031 1.61984 8.64477 1.49069C8.63924 1.36155 8.66382 1.23289 8.71657 1.11488C8.77049 0.998614 8.85189 0.897213 8.95375 0.819431C9.05561 0.741649 9.17486 0.689822 9.30122 0.668424C9.65231 0.607277 10.0079 0.575277 10.3642 0.572754C15.8493 0.572754 20.7284 7.55664 20.7284 13.063Z" fill="#113990"/>
<path d="M14.6164 19.441C14.617 20.2376 14.3929 21.0183 13.9699 21.6934C13.5468 22.3684 12.9419 22.9104 12.2247 23.2571C10.9949 23.4839 9.73397 23.4839 8.50417 23.2571C7.78693 22.9104 7.18203 22.3684 6.75896 21.6934C6.33589 21.0183 6.1118 20.2376 6.11243 19.441C6.11243 17.0918 10.3644 12 10.3644 12C10.3644 12 14.6164 17.0918 14.6164 19.441Z" fill="white"/>
</svg>
