<svg width="303" height="509" viewBox="0 0 303 509" fill="none" xmlns="http://www.w3.org/2000/svg">
<mask id="mask0_28_126" style="mask-type:alpha" maskUnits="userSpaceOnUse" x="0" y="0" width="302" height="302">
<path d="M292 151C292 228.872 228.872 292 151 292C73.1279 292 10 228.872 10 151C10 73.1279 73.1279 10 151 10C228.872 10 292 73.1279 292 151Z" stroke="#091227" stroke-width="20"/>
</mask>
<g mask="url(#mask0_28_126)">
<rect x="30.6734" y="-77.6599" width="151.891" height="327.133" transform="rotate(21.1463 30.6734 -77.6599)" fill="#FF5733" stroke="#091227"/>
<rect x="385.674" y="153.661" width="422" height="134.862" transform="rotate(-163.156 385.674 153.661)" fill="#091227" stroke="#091227"/>
</g>
<path d="M63.9999 46L76.5167 30L244.281 320.576L223 316.5L63.9999 46Z" fill="#FF5733"/>
<path d="M86 21L108.517 8.00002L303 326.5L257 321L86 21Z" fill="#091227"/>
<path d="M177.1 140.4C177.9 140 181.5 140 187.9 140.4C195.3 140.4 206 141.2 220 142.8C232.6 144.2 242.1 144.9 248.5 144.9H253.9L256.9 143.4C261.1 141.4 265 140.3 268.6 140.1C270.8 140.1 272.3 140.3 273.1 140.7C274.7 141.5 275.5 142.7 275.5 144.3C275.5 146.3 273 150.4 268 156.6C267 157.8 265.4 159.7 263.2 162.3C249.4 178.9 233.2 196.9 214.6 216.3L207.7 223.5L211.9 224.1L218.2 224.7H218.5C223.5 225.7 226.7 227.9 228.1 231.3C230.1 235.7 228.2 240.1 222.4 244.5C218.6 247.3 214.5 248.7 210.1 248.7C208.3 248.7 207.1 248.4 206.5 247.8C205.3 247 204.6 246.5 204.4 246.3C204 245.7 203.7 245.4 203.5 245.4C202.9 244.8 199.3 244.3 192.7 243.9L187.6 243.6L179.5 251.4C158.9 271.4 136.4 292.1 112 313.5L110.2 314.7L115.6 315C126 315 142.4 315.8 164.8 317.4C177.6 318.6 189.6 319.4 200.8 319.8L210.4 320.1L211.3 319.2C215.9 313.8 219.6 306.5 222.4 297.3C223.2 294.5 224.3 292.1 225.7 290.1C230.5 284.3 237.1 280.1 245.5 277.5C246.1 277.3 246.7 277.1 247.3 276.9C251.5 275.9 254.7 275.9 256.9 276.9C258.5 277.9 259.1 279.3 258.7 281.1C258.1 285.3 256.4 290.4 253.6 296.4C250.6 303 246.9 309.1 242.5 314.7C238.3 319.5 233.8 324 229 328.2C217.6 337.4 205.9 342.8 193.9 344.4C186.5 345.6 167.8 345 137.8 342.6C112 340.4 95.6 339.5 88.6 339.9C83.6 340.1 78.9 341 74.5 342.6C69.7 344.2 66.1 345 63.7 345C61.3 345 59.6 344.5 58.6 343.5C57.8 342.3 57.5 341 57.7 339.6C58.7 336.4 62.5 331.9 69.1 326.1C69.7 325.7 70.3 325.2 70.9 324.6C102.5 297.6 130.9 272 156.1 247.8L160.3 243.6H147.1H134.2L132.7 242.4C130.7 241 129.7 239.2 129.7 237C130.3 232.2 133.9 228.3 140.5 225.3C143.1 224.1 148.6 223.5 157 223.5C158.2 223.5 160.3 223.5 163.3 223.5H180.7L188.2 215.7C204.2 198.5 216.1 185.3 223.9 176.1L229 170.1H221.5C212.7 169.7 202.6 168.9 191.2 167.7C169.8 165.3 156.2 164.9 150.4 166.5C147.6 167.3 145.1 168.9 142.9 171.3C141.1 173.9 139.7 176.8 138.7 180C137.7 182.6 137.1 184 136.9 184.2C133.5 189.2 127.9 193.6 120.1 197.4C116.5 199 112.9 199.9 109.3 200.1C107.1 200.1 105.6 199.9 104.8 199.5C103.2 198.5 102.4 197.3 102.4 195.9C102.4 193.7 103.6 190.2 106 185.4C112.6 171.8 124.6 160.4 142 151.2C152.2 145.8 162.5 142.4 172.9 141C175.3 140.6 176.7 140.4 177.1 140.4Z" fill="#091227"/>
</svg>
