<svg width="80" height="977" viewBox="0 0 38 977" fill="none" xmlns="http://www.w3.org/2000/svg">
<rect x="15.907" y="59" width="6.18605" height="38" fill="#B1B1B1" fill-opacity="0.3"/>
<g style="mix-blend-mode:difference">
<rect y="74.907" width="38" height="6.18605" fill="#B1B1B1" fill-opacity="0.3"/>
</g>
<rect x="15.907" y="114" width="6.18605" height="38" fill="#B1B1B1" fill-opacity="0.3"/>
<g style="mix-blend-mode:difference">
<rect y="129.907" width="38" height="6.18605" fill="#B1B1B1" fill-opacity="0.3"/>
</g>
<rect x="15.907" y="169" width="6.18605" height="38" fill="#B1B1B1" fill-opacity="0.3"/>
<g style="mix-blend-mode:difference">
<rect y="184.907" width="38" height="6.18605" fill="#B1B1B1" fill-opacity="0.3"/>
</g>
<rect x="15.907" y="224" width="6.18605" height="38" fill="#B1B1B1" fill-opacity="0.3"/>
<g style="mix-blend-mode:difference">
<rect y="239.907" width="38" height="6.18605" fill="#B1B1B1" fill-opacity="0.3"/>
</g>
<rect x="15.907" y="279" width="6.18605" height="38" fill="#B1B1B1" fill-opacity="0.3"/>
<g style="mix-blend-mode:difference">
<rect y="294.907" width="38" height="6.18605" fill="#B1B1B1" fill-opacity="0.3"/>
</g>
<rect x="15.907" y="334" width="6.18605" height="38" fill="#B1B1B1" fill-opacity="0.3"/>
<g style="mix-blend-mode:difference">
<rect y="349.907" width="38" height="6.18605" fill="#B1B1B1" fill-opacity="0.3"/>
</g>
<rect x="15.907" y="389" width="6.18605" height="38" fill="#B1B1B1" fill-opacity="0.3"/>
<g style="mix-blend-mode:difference">
<rect y="404.907" width="38" height="6.18605" fill="#B1B1B1" fill-opacity="0.3"/>
</g>
<rect x="15.907" y="444" width="6.18605" height="38" fill="#B1B1B1" fill-opacity="0.3"/>
<g style="mix-blend-mode:difference">
<rect y="459.907" width="38" height="6.18605" fill="#B1B1B1" fill-opacity="0.3"/>
</g>
<rect x="15.907" y="499" width="6.18605" height="38" fill="#B1B1B1" fill-opacity="0.3"/>
<g style="mix-blend-mode:difference">
<rect y="514.907" width="38" height="6.18605" fill="#B1B1B1" fill-opacity="0.3"/>
</g>
<rect x="15.907" y="554" width="6.18605" height="38" fill="#B1B1B1" fill-opacity="0.3"/>
<g style="mix-blend-mode:difference">
<rect y="569.907" width="38" height="6.18605" fill="#B1B1B1" fill-opacity="0.3"/>
</g>
<rect x="15.907" y="609" width="6.18605" height="38" fill="#B1B1B1" fill-opacity="0.3"/>
<g style="mix-blend-mode:difference">
<rect y="624.907" width="38" height="6.18605" fill="#B1B1B1" fill-opacity="0.3"/>
</g>
<rect x="15.907" y="664" width="6.18605" height="38" fill="#B1B1B1" fill-opacity="0.3"/>
<g style="mix-blend-mode:difference">
<rect y="679.907" width="38" height="6.18605" fill="#B1B1B1" fill-opacity="0.3"/>
</g>
<rect x="15.907" y="719" width="6.18605" height="38" fill="#B1B1B1" fill-opacity="0.3"/>
<g style="mix-blend-mode:difference">
<rect y="734.907" width="38" height="6.18605" fill="#B1B1B1" fill-opacity="0.3"/>
</g>
<rect x="15.907" y="774" width="6.18605" height="38" fill="#B1B1B1" fill-opacity="0.3"/>
<g style="mix-blend-mode:difference">
<rect y="789.907" width="38" height="6.18605" fill="#B1B1B1" fill-opacity="0.3"/>
</g>
<rect x="15.907" y="829" width="6.18605" height="38" fill="#B1B1B1" fill-opacity="0.3"/>
<g style="mix-blend-mode:difference">
<rect y="844.907" width="38" height="6.18605" fill="#B1B1B1" fill-opacity="0.3"/>
</g>
<rect x="15.907" y="884" width="6.18605" height="38" fill="#B1B1B1" fill-opacity="0.3"/>
<g style="mix-blend-mode:difference">
<rect y="899.907" width="38" height="6.18605" fill="#B1B1B1" fill-opacity="0.3"/>
</g>
<rect x="15.907" y="939" width="6.18605" height="38" fill="#B1B1B1" fill-opacity="0.3"/>
<g style="mix-blend-mode:difference">
<rect y="954.907" width="38" height="6.18605" fill="#B1B1B1" fill-opacity="0.3"/>
</g>
<rect x="15.907" width="6.18605" height="38" fill="#B1B1B1" fill-opacity="0.3"/>
<g style="mix-blend-mode:difference">
<rect y="15.907" width="38" height="6.18605" fill="#B1B1B1" fill-opacity="0.3"/>
</g>
</svg>
