<svg width="97" height="108" viewBox="0 0 97 108" fill="none" xmlns="http://www.w3.org/2000/svg">
<mask id="mask0_582_9098" style="mask-type:alpha" maskUnits="userSpaceOnUse" x="0" y="0" width="92" height="92">
<path d="M88.3458 45.6857C88.3458 69.2462 69.2462 88.3458 45.6857 88.3458C22.1251 88.3458 3.02554 69.2462 3.02554 45.6857C3.02554 22.1251 22.1251 3.02554 45.6857 3.02554C69.2462 3.02554 88.3458 22.1251 88.3458 45.6857Z" stroke="#091227" stroke-width="6.05108"/>
</mask>
<g mask="url(#mask0_582_9098)">
<rect x="9.28036" y="-23.4962" width="45.9554" height="98.9753" transform="rotate(21.1463 9.28036 -23.4962)" fill="url(#paint0_linear_582_9098)" stroke="#091227" stroke-width="0.302554"/>
<rect x="116.687" y="46.4908" width="127.678" height="40.803" transform="rotate(-163.156 116.687 46.4908)" fill="#091227" stroke="#091227" stroke-width="0.302554"/>
</g>
<path d="M14.1494 18.8409L17.9364 14.0001L68.6941 101.915L62.2555 100.682L14.1494 18.8409Z" fill="url(#paint1_linear_582_9098)"/>
<path d="M30.5004 9.32147L37.3129 5.38827L96.1546 101.752L82.2371 100.088L30.5004 9.32147Z" fill="#091227"/>
<path d="M53.6648 21.0974C53.9069 20.9764 54.9961 20.9764 56.9324 21.0974C59.1713 21.0974 62.4086 21.3395 66.6444 21.8236C70.4566 22.2471 73.3308 22.4589 75.2672 22.4589H76.901L77.8086 22.0051C79.0794 21.4 80.2593 21.0672 81.3485 21.0067C82.0141 21.0067 82.468 21.0672 82.71 21.1882C83.1941 21.4303 83.4362 21.7933 83.4362 22.2774C83.4362 22.8825 82.6798 24.123 81.167 25.9988C80.8644 26.3619 80.3804 26.9367 79.7147 27.7234C75.5395 32.7458 70.6381 38.1917 65.0106 44.0613L62.923 46.2397L64.1937 46.4212L66.0998 46.6027H66.1906C67.7033 46.9053 68.6715 47.5709 69.0951 48.5996C69.7002 49.9308 69.1253 51.2621 67.3705 52.5933C66.2208 53.4405 64.9804 53.864 63.6491 53.864C63.1045 53.864 62.7415 53.7733 62.5599 53.5917C62.1969 53.3497 61.9851 53.1984 61.9246 53.1379C61.8035 52.9564 61.7128 52.8656 61.6523 52.8656C61.4707 52.6841 60.3815 52.5328 58.3847 52.4118L56.8417 52.321L54.391 54.6809C48.1583 60.732 41.3509 66.9949 33.9686 73.4695L33.424 73.8326L35.0578 73.9234C38.2043 73.9234 43.1662 74.1654 49.9434 74.6495C53.8161 75.0126 57.4468 75.2546 60.8354 75.3756L63.7399 75.4664L64.0122 75.1941C65.4039 73.5603 66.5234 71.3517 67.3705 68.5682C67.6126 67.721 67.9454 66.9949 68.369 66.3898C69.8212 64.635 71.8181 63.3642 74.3595 62.5776C74.5411 62.5171 74.7226 62.4566 74.9041 62.3961C76.1749 62.0935 77.143 62.0935 77.8086 62.3961C78.2927 62.6986 78.4743 63.1222 78.3532 63.6668C78.1717 64.9375 77.6574 66.4806 76.8102 68.2959C75.9026 70.2927 74.7831 72.1383 73.4519 73.8326C72.1811 75.2849 70.8196 76.6464 69.3674 77.9171C65.9183 80.7006 62.3784 82.3344 58.7477 82.8185C56.5088 83.1815 50.8511 83 41.7745 82.2739C33.9686 81.6083 29.0067 81.336 26.8888 81.457C25.376 81.5175 23.954 81.7898 22.6228 82.2739C21.1705 82.758 20.0813 83 19.3552 83C18.6291 83 18.1147 82.8487 17.8122 82.5462C17.5701 82.1831 17.4794 81.7898 17.5399 81.3662C17.8424 80.398 18.9921 79.0365 20.989 77.2817C21.1705 77.1607 21.3521 77.0094 21.5336 76.8279C31.0943 68.6589 39.6868 60.9136 47.3112 53.5917L48.5819 52.321H44.5882H40.6853L40.2314 51.958C39.6263 51.5344 39.3238 50.9898 39.3238 50.3242C39.5053 48.8719 40.5945 47.6919 42.5914 46.7843C43.378 46.4212 45.042 46.2397 47.5835 46.2397C47.9466 46.2397 48.5819 46.2397 49.4896 46.2397H54.754L57.0232 43.8798C61.864 38.6758 65.4644 34.6821 67.8244 31.8986L69.3674 30.0833H67.0982C64.4358 29.9623 61.38 29.7202 57.9308 29.3572C51.4562 28.631 47.3415 28.51 45.5866 28.9941C44.7395 29.2361 43.9831 29.7202 43.3175 30.4464C42.7729 31.233 42.3493 32.1104 42.0468 33.0786C41.7442 33.8652 41.5627 34.2888 41.5022 34.3493C40.4735 35.8621 38.7792 37.1933 36.4193 38.343C35.3301 38.8271 34.2409 39.0994 33.1517 39.1599C32.4861 39.1599 32.0322 39.0994 31.7902 38.9784C31.3061 38.6758 31.064 38.3128 31.064 37.8892C31.064 37.2236 31.4271 36.1646 32.1532 34.7124C34.1501 30.5976 37.7807 27.1485 43.0452 24.365C46.1312 22.7312 49.2475 21.7026 52.3941 21.279C53.1202 21.158 53.5438 21.0974 53.6648 21.0974Z" fill="#091227"/>
<defs>
<linearGradient id="paint0_linear_582_9098" x1="9.19385" y1="25.947" x2="55.4518" y2="25.947" gradientUnits="userSpaceOnUse">
<stop stop-color="#D9D9D9" stop-opacity="0"/>
<stop offset="1" stop-color="#FF5733"/>
</linearGradient>
<linearGradient id="paint1_linear_582_9098" x1="38.3788" y1="60.8075" x2="43.3152" y2="57.9575" gradientUnits="userSpaceOnUse">
<stop stop-color="#D9D9D9" stop-opacity="0"/>
<stop offset="1" stop-color="#FF5733"/>
</linearGradient>
</defs>
</svg>
